<svg version="1.1" id="Layer_1" xmlns="http://www.w3.org/2000/svg" xmlns:xlink="http://www.w3.org/1999/xlink" x="0px" y="0px"
	 width="100%" viewBox="0 0 719 473" enable-background="new 0 0 719 473" xml:space="preserve">
<path fill="#010314" opacity="1.000000" stroke="none" 
	d="
M499.000000,474.000000 
	C332.666656,474.000000 166.833328,474.000000 1.000000,474.000000 
	C1.000000,316.333344 1.000000,158.666672 1.000000,1.000000 
	C240.666672,1.000000 480.333344,1.000000 720.000000,1.000000 
	C720.000000,158.666672 720.000000,316.333344 720.000000,474.000000 
	C646.500000,474.000000 573.000000,474.000000 499.000000,474.000000 
M30.024132,357.525848 
	C27.063122,367.108093 24.102110,376.690338 21.114563,386.358459 
	C22.269270,386.603790 22.754417,386.796509 23.239828,386.797150 
	C49.067745,386.831543 74.896133,386.908844 100.722458,386.715027 
	C102.191002,386.704010 104.358772,384.751923 104.991287,383.207672 
	C111.125481,368.231506 117.064758,353.174011 122.892456,338.075165 
	C123.964355,335.298035 125.162346,333.680725 128.461487,333.602661 
	C134.780136,333.453156 141.083511,332.584198 147.401108,332.476349 
	C164.531647,332.183868 181.690643,331.508087 198.792038,332.173981 
	C213.964355,332.764832 226.248505,339.741730 233.804428,353.422607 
	C238.850494,362.559082 243.521652,371.910461 248.103287,381.291351 
	C249.700089,384.560760 251.296997,386.153748 255.417389,386.099762 
	C278.575806,385.796204 301.740051,385.934387 324.902313,385.922211 
	C327.172058,385.921021 329.441803,385.922028 331.953461,385.922028 
	C331.737518,384.591675 331.701996,383.757996 331.462891,382.987518 
	C318.498810,341.213654 305.748779,299.371521 292.483002,257.693542 
	C273.439209,197.862396 254.001099,138.156799 234.805573,78.373756 
	C233.775848,75.166771 232.188950,74.118698 228.746078,74.137878 
	C208.751251,74.249321 188.748062,73.727928 168.761688,74.125061 
	C158.510056,74.328766 148.028290,74.914223 138.120422,77.288284 
	C126.892563,79.978653 116.760040,85.318634 112.734367,97.878342 
	C96.916954,147.227081 80.803185,196.480942 65.025497,245.842285 
	C53.228413,282.750092 41.778156,319.768768 30.024132,357.525848 
M548.500000,74.008011 
	C522.004395,74.013908 495.508667,73.981361 469.013184,74.043404 
	C457.351166,74.070709 445.522308,73.067947 434.057159,74.636978 
	C387.457489,81.014214 363.363373,111.959045 359.208130,154.805237 
	C356.976288,177.818710 356.269775,201.011765 355.669739,224.144424 
	C354.771515,258.774353 355.205627,293.370972 363.049744,327.413269 
	C370.263214,358.718506 388.984772,379.078064 420.623138,385.775085 
	C438.597900,389.579834 456.966309,391.708649 475.247040,393.814606 
	C486.128784,395.068207 497.270844,395.872284 508.140930,394.983582 
	C523.646484,393.715881 539.028076,390.825470 554.426392,388.398132 
	C562.048523,387.196564 569.589600,385.480865 577.369446,383.958221 
	C576.444336,364.978333 575.548462,346.597534 574.644958,328.060669 
	C558.809326,327.023651 543.510376,326.334442 528.275574,324.943695 
	C509.923828,323.268402 491.549103,321.521820 473.327942,318.833008 
	C455.909515,316.262573 446.680115,307.573853 444.249512,293.157898 
	C443.450684,288.419861 443.133484,283.566010 443.012482,278.754639 
	C442.618927,263.100128 442.061951,247.436691 442.239685,231.784317 
	C442.430267,214.997406 442.723175,198.162277 444.165985,181.451324 
	C446.009949,160.093323 458.488342,147.369995 479.001434,141.703415 
	C497.153656,136.689011 515.777222,136.328735 534.323364,134.991318 
	C546.709167,134.098145 559.099121,133.264465 571.406616,132.409760 
	C571.406616,112.354393 571.406616,93.311394 571.406616,74.008011 
	C563.814148,74.008011 556.657104,74.008011 548.500000,74.008011 
M625.281067,390.989288 
	C629.533447,390.315552 633.839905,389.879639 638.028687,388.926514 
	C655.319092,384.992279 672.572144,380.894287 689.843262,376.874878 
	C692.633972,376.225433 693.979126,374.828064 693.797607,371.677734 
	C693.419922,365.123383 693.542358,358.541473 693.229980,351.981812 
	C692.839600,343.785614 692.218384,335.600464 691.691467,327.326080 
	C666.776733,327.326080 642.083252,327.326080 617.259827,327.326080 
	C618.245239,348.664185 619.215271,369.669312 620.201172,391.016663 
	C621.803833,391.016663 623.084045,391.016663 625.281067,390.989288 
z"/>
<path fill="#F2F3F3" opacity="1.000000" stroke="none" 
	d="
M30.098797,357.131958 
	C41.778156,319.768768 53.228413,282.750092 65.025497,245.842285 
	C80.803185,196.480942 96.916954,147.227081 112.734367,97.878342 
	C116.760040,85.318634 126.892563,79.978653 138.120422,77.288284 
	C148.028290,74.914223 158.510056,74.328766 168.761688,74.125061 
	C188.748062,73.727928 208.751251,74.249321 228.746078,74.137878 
	C232.188950,74.118698 233.775848,75.166771 234.805573,78.373756 
	C254.001099,138.156799 273.439209,197.862396 292.483002,257.693542 
	C305.748779,299.371521 318.498810,341.213654 331.462891,382.987518 
	C331.701996,383.757996 331.737518,384.591675 331.953461,385.922028 
	C329.441803,385.922028 327.172058,385.921021 324.902313,385.922211 
	C301.740051,385.934387 278.575806,385.796204 255.417389,386.099762 
	C251.296997,386.153748 249.700089,384.560760 248.103287,381.291351 
	C243.521652,371.910461 238.850494,362.559082 233.804428,353.422607 
	C226.248505,339.741730 213.964355,332.764832 198.792038,332.173981 
	C181.690643,331.508087 164.531647,332.183868 147.401108,332.476349 
	C141.083511,332.584198 134.780136,333.453156 128.461487,333.602661 
	C125.162346,333.680725 123.964355,335.298035 122.892456,338.075165 
	C117.064758,353.174011 111.125481,368.231506 104.991287,383.207672 
	C104.358772,384.751923 102.191002,386.704010 100.722458,386.715027 
	C74.896133,386.908844 49.067745,386.831543 23.239828,386.797150 
	C22.754417,386.796509 22.269270,386.603790 21.114563,386.358459 
	C24.102110,376.690338 27.063122,367.108093 30.098797,357.131958 
M159.255875,200.850677 
	C153.156174,221.600464 147.056473,242.350266 140.938278,263.162964 
	C164.217087,263.162964 186.771851,263.162964 209.820374,263.162964 
	C199.225098,227.001923 188.760452,191.286728 178.295822,155.571548 
	C177.936707,155.550339 177.577591,155.529114 177.218475,155.507904 
	C171.354553,170.391785 165.490631,185.275650 159.255875,200.850677 
z"/>
<path fill="#F1F1F2" opacity="1.000000" stroke="none" 
	d="
M549.000000,74.008011 
	C556.657104,74.008011 563.814148,74.008011 571.406616,74.008011 
	C571.406616,93.311394 571.406616,112.354393 571.406616,132.409760 
	C559.099121,133.264465 546.709167,134.098145 534.323364,134.991318 
	C515.777222,136.328735 497.153656,136.689011 479.001434,141.703415 
	C458.488342,147.369995 446.009949,160.093323 444.165985,181.451324 
	C442.723175,198.162277 442.430267,214.997406 442.239685,231.784317 
	C442.061951,247.436691 442.618927,263.100128 443.012482,278.754639 
	C443.133484,283.566010 443.450684,288.419861 444.249512,293.157898 
	C446.680115,307.573853 455.909515,316.262573 473.327942,318.833008 
	C491.549103,321.521820 509.923828,323.268402 528.275574,324.943695 
	C543.510376,326.334442 558.809326,327.023651 574.644958,328.060669 
	C575.548462,346.597534 576.444336,364.978333 577.369446,383.958221 
	C569.589600,385.480865 562.048523,387.196564 554.426392,388.398132 
	C539.028076,390.825470 523.646484,393.715881 508.140930,394.983582 
	C497.270844,395.872284 486.128784,395.068207 475.247040,393.814606 
	C456.966309,391.708649 438.597900,389.579834 420.623138,385.775085 
	C388.984772,379.078064 370.263214,358.718506 363.049744,327.413269 
	C355.205627,293.370972 354.771515,258.774353 355.669739,224.144424 
	C356.269775,201.011765 356.976288,177.818710 359.208130,154.805237 
	C363.363373,111.959045 387.457489,81.014214 434.057159,74.636978 
	C445.522308,73.067947 457.351166,74.070709 469.013184,74.043404 
	C495.508667,73.981361 522.004395,74.013908 549.000000,74.008011 
z"/>
<path fill="#0077F6" opacity="1.000000" stroke="none" 
	d="
M624.822632,391.002991 
	C623.084045,391.016663 621.803833,391.016663 620.201172,391.016663 
	C619.215271,369.669312 618.245239,348.664185 617.259827,327.326080 
	C642.083252,327.326080 666.776733,327.326080 691.691467,327.326080 
	C692.218384,335.600464 692.839600,343.785614 693.229980,351.981812 
	C693.542358,358.541473 693.419922,365.123383 693.797607,371.677734 
	C693.979126,374.828064 692.633972,376.225433 689.843262,376.874878 
	C672.572144,380.894287 655.319092,384.992279 638.028687,388.926514 
	C633.839905,389.879639 629.533447,390.315552 624.822632,391.002991 
z"/>
<path fill="#2D2F3D" opacity="1.000000" stroke="none" 
	d="
M159.441284,200.505096 
	C165.490631,185.275650 171.354553,170.391785 177.218475,155.507904 
	C177.577591,155.529114 177.936707,155.550339 178.295822,155.571548 
	C188.760452,191.286728 199.225098,227.001923 209.820374,263.162964 
	C186.771851,263.162964 164.217087,263.162964 140.938278,263.162964 
	C147.056473,242.350266 153.156174,221.600464 159.441284,200.505096 
z"/>
</svg>